<?xml version="1.0" encoding="iso-8859-1"?>
<!-- Generator: Adobe Illustrator 17.1.0, SVG Export Plug-In . SVG Version: 6.00 Build 0)  -->
<!DOCTYPE svg PUBLIC "-//W3C//DTD SVG 1.1//EN" "http://www.w3.org/Graphics/SVG/1.1/DTD/svg11.dtd">
<svg version="1.1" id="Capa_1" xmlns="http://www.w3.org/2000/svg" xmlns:xlink="http://www.w3.org/1999/xlink" x="0px" y="0px"
	 viewBox="0 0 189 189" style="enable-background:new 0 0 189 189;" xml:space="preserve">
<path style="fill:#000002;" d="M146.65,181.396H42.35c-1.381,0-2.5-1.119-2.5-2.5s1.119-2.5,2.5-2.5h12.999l8.315-25.667H7.5
	c-4.136,0-7.5-3.364-7.5-7.5V15.104c0-4.136,3.364-7.5,7.5-7.5h174c4.136,0,7.5,3.364,7.5,7.5v128.125c0,4.136-3.364,7.5-7.5,7.5
	h-56.165l8.316,25.667h12.999c1.381,0,2.5,1.119,2.5,2.5S148.031,181.396,146.65,181.396z M60.604,176.396h67.791l-8.316-25.667
	H68.92L60.604,176.396z M121.897,145.729H181.5c1.379,0,2.5-1.122,2.5-2.5V15.104c0-1.378-1.121-2.5-2.5-2.5H7.5
	c-1.379,0-2.5,1.122-2.5,2.5v128.125c0,1.378,1.121,2.5,2.5,2.5H121.897z M174.901,132.979H14.099c-1.381,0-2.5-1.119-2.5-2.5
	V23.104c0-1.381,1.119-2.5,2.5-2.5h160.803c1.381,0,2.5,1.119,2.5,2.5v107.375C177.401,131.86,176.282,132.979,174.901,132.979z
	 M16.599,127.979h155.803V25.604H16.599V127.979z M119.615,109.775h-50.23c-1.381,0-2.5-1.119-2.5-2.5V76.846h-3.779
	c-1.021,0-1.938-0.621-2.319-1.567c-0.381-0.947-0.147-2.031,0.589-2.737L92.77,42.436c0.967-0.927,2.494-0.927,3.461,0
	l31.394,30.105c0.736,0.706,0.97,1.79,0.589,2.737c-0.381,0.947-1.299,1.567-2.319,1.567h-3.778v30.429
	C122.115,108.656,120.996,109.775,119.615,109.775z M71.885,104.775h45.23V74.346c0-1.381,1.119-2.5,2.5-2.5h0.06L94.5,47.705
	L69.324,71.846h0.061c1.381,0,2.5,1.119,2.5,2.5V104.775z"/>
<g>
</g>
<g>
</g>
<g>
</g>
<g>
</g>
<g>
</g>
<g>
</g>
<g>
</g>
<g>
</g>
<g>
</g>
<g>
</g>
<g>
</g>
<g>
</g>
<g>
</g>
<g>
</g>
<g>
</g>
</svg>
